<svg xmlns="http://www.w3.org/2000/svg" xmlns:xlink="http://www.w3.org/1999/xlink" width="24" height="24" preserveAspectRatio="xMidYMid meet" viewBox="0 0 24 24" style="-ms-transform: rotate(360deg); -webkit-transform: rotate(360deg); transform: rotate(360deg);"><path d="M20 6h-3V4c0-1.103-.897-2-2-2H9c-1.103 0-2 .897-2 2v2H4c-1.103 0-2 .897-2 2v3h20V8c0-1.103-.897-2-2-2zM9 4h6v2H9V4zm5 10h-4v-2H2v7c0 1.103.897 2 2 2h16c1.103 0 2-.897 2-2v-7h-8v2z" fill="#626262"/><rect x="0" y="0" width="24" height="24" fill="rgba(0, 0, 0, 0)" /></svg>